P1
16 16
1000000000000000
0100000100000001
0010000000000000
0001000001000000
0000100000000000
0001010000000000
0000000000000000
0000100100000000
0000000010000010
0000000101000000
1000000000100000
0000000000010000
0100000000001000
0000000000000100
0001000000001010
0000000000000001
